<mxfile host="app.diagrams.net" modified="2020-07-06T01:20:29.045Z" agent="5.0 (Windows NT 6.1; Win64; x64) AppleWebKit/537.36 (KHTML, like Gecko) Chrome/83.0.4103.116 Safari/537.36" etag="b8ccX9AixRBpm49sM1YO" version="13.3.5" type="github">
  <diagram id="Rs5jWs0ioyU7rEhWC_OG" name="Page-1">
    <mxGraphModel dx="1422" dy="762" grid="1" gridSize="10" guides="1" tooltips="1" connect="1" arrows="1" fold="1" page="1" pageScale="1" pageWidth="827" pageHeight="1169" math="0" shadow="0">
      <root>
        <mxCell id="0" />
        <mxCell id="1" parent="0" />
        <mxCell id="NvtGPpROzzw8QnHz-c4A-3" value="" style="edgeStyle=orthogonalEdgeStyle;rounded=0;orthogonalLoop=1;jettySize=auto;fontFamily=Courier New;fontSize=15;" parent="1" source="NvtGPpROzzw8QnHz-c4A-13" target="NvtGPpROzzw8QnHz-c4A-2" edge="1">
          <mxGeometry relative="1" as="geometry">
            <Array as="points">
              <mxPoint x="270" y="450" />
              <mxPoint x="270" y="450" />
            </Array>
          </mxGeometry>
        </mxCell>
        <mxCell id="NvtGPpROzzw8QnHz-c4A-1" value="delete Instance" style="rounded=0;whiteSpace=wrap;fontFamily=Courier New;fontSize=15;" parent="1" vertex="1">
          <mxGeometry x="180" y="70" width="180" height="60" as="geometry" />
        </mxCell>
        <mxCell id="NvtGPpROzzw8QnHz-c4A-5" value="" style="edgeStyle=orthogonalEdgeStyle;rounded=0;orthogonalLoop=1;jettySize=auto;fontFamily=Courier New;fontSize=15;" parent="1" source="NvtGPpROzzw8QnHz-c4A-2" target="NvtGPpROzzw8QnHz-c4A-4" edge="1">
          <mxGeometry relative="1" as="geometry" />
        </mxCell>
        <mxCell id="NvtGPpROzzw8QnHz-c4A-2" value="visibility=0 , real_status=&#39;SOFT_DELETED&#39;" style="rounded=0;whiteSpace=wrap;fontFamily=Courier New;fontSize=15;" parent="1" vertex="1">
          <mxGeometry x="180" y="490" width="180" height="70" as="geometry" />
        </mxCell>
        <mxCell id="NvtGPpROzzw8QnHz-c4A-27" value="" style="edgeStyle=orthogonalEdgeStyle;rounded=0;orthogonalLoop=1;jettySize=auto;html=0;fontFamily=Courier New;fontSize=15;" parent="1" source="NvtGPpROzzw8QnHz-c4A-4" target="NvtGPpROzzw8QnHz-c4A-26" edge="1">
          <mxGeometry relative="1" as="geometry" />
        </mxCell>
        <mxCell id="NvtGPpROzzw8QnHz-c4A-4" value="DisableInternetAccess" style="rounded=0;whiteSpace=wrap;fontFamily=Courier New;fontSize=15;" parent="1" vertex="1">
          <mxGeometry x="180" y="630" width="180" height="60" as="geometry" />
        </mxCell>
        <mxCell id="NvtGPpROzzw8QnHz-c4A-17" value="" style="edgeStyle=orthogonalEdgeStyle;rounded=0;orthogonalLoop=1;jettySize=auto;fontFamily=Courier New;fontSize=15;" parent="1" source="NvtGPpROzzw8QnHz-c4A-11" edge="1">
          <mxGeometry relative="1" as="geometry">
            <mxPoint x="390" y="360" as="targetPoint" />
          </mxGeometry>
        </mxCell>
        <mxCell id="NvtGPpROzzw8QnHz-c4A-11" value="TestUser" style="rhombus;whiteSpace=wrap;fontFamily=Courier New;fontSize=15;" parent="1" vertex="1">
          <mxGeometry x="230" y="320" width="80" height="80" as="geometry" />
        </mxCell>
        <mxCell id="NvtGPpROzzw8QnHz-c4A-12" value="" style="edgeStyle=orthogonalEdgeStyle;rounded=0;orthogonalLoop=1;jettySize=auto;fontFamily=Courier New;fontSize=15;" parent="1" source="NvtGPpROzzw8QnHz-c4A-1" target="NvtGPpROzzw8QnHz-c4A-11" edge="1">
          <mxGeometry relative="1" as="geometry">
            <mxPoint x="270" y="240" as="sourcePoint" />
            <mxPoint x="270" y="490" as="targetPoint" />
          </mxGeometry>
        </mxCell>
        <mxCell id="NvtGPpROzzw8QnHz-c4A-25" value="No" style="edgeLabel;html=1;align=center;verticalAlign=middle;resizable=0;points=[];fontSize=15;fontFamily=Courier New;" parent="NvtGPpROzzw8QnHz-c4A-12" vertex="1" connectable="0">
          <mxGeometry x="0.6526" y="1" relative="1" as="geometry">
            <mxPoint as="offset" />
          </mxGeometry>
        </mxCell>
        <mxCell id="NvtGPpROzzw8QnHz-c4A-13" value="NO" style="text;strokeColor=none;fillColor=none;align=center;verticalAlign=middle;whiteSpace=wrap;rounded=0;fontFamily=Courier New;fontSize=15;" parent="1" vertex="1">
          <mxGeometry x="250" y="420" width="40" height="20" as="geometry" />
        </mxCell>
        <mxCell id="NvtGPpROzzw8QnHz-c4A-14" value="" style="edgeStyle=orthogonalEdgeStyle;rounded=0;orthogonalLoop=1;jettySize=auto;fontFamily=Courier New;fontSize=15;" parent="1" source="NvtGPpROzzw8QnHz-c4A-11" target="NvtGPpROzzw8QnHz-c4A-13" edge="1">
          <mxGeometry relative="1" as="geometry">
            <mxPoint x="270" y="400" as="sourcePoint" />
            <mxPoint x="270" y="490" as="targetPoint" />
            <Array as="points" />
          </mxGeometry>
        </mxCell>
        <mxCell id="NvtGPpROzzw8QnHz-c4A-18" value="Delete&amp;nbsp;" style="rounded=0;whiteSpace=wrap;fontFamily=Courier New;fontSize=15;" parent="1" vertex="1">
          <mxGeometry x="390" y="330" width="100" height="60" as="geometry" />
        </mxCell>
        <mxCell id="NvtGPpROzzw8QnHz-c4A-20" value="Yes" style="text;strokeColor=none;fillColor=none;align=center;verticalAlign=middle;whiteSpace=wrap;rounded=0;fontFamily=Courier New;fontSize=15;" parent="1" vertex="1">
          <mxGeometry x="330" y="340" width="40" height="20" as="geometry" />
        </mxCell>
        <mxCell id="NvtGPpROzzw8QnHz-c4A-23" style="edgeStyle=orthogonalEdgeStyle;rounded=0;orthogonalLoop=1;jettySize=auto;html=0;entryX=0.5;entryY=0;entryDx=0;entryDy=0;fontFamily=Courier New;fontSize=15;" parent="1" source="NvtGPpROzzw8QnHz-c4A-22" target="NvtGPpROzzw8QnHz-c4A-18" edge="1">
          <mxGeometry relative="1" as="geometry" />
        </mxCell>
        <mxCell id="NvtGPpROzzw8QnHz-c4A-24" value="Yes" style="edgeLabel;html=1;align=center;verticalAlign=middle;resizable=0;points=[];fontSize=15;fontFamily=Courier New;" parent="NvtGPpROzzw8QnHz-c4A-23" vertex="1" connectable="0">
          <mxGeometry x="-0.5417" y="1" relative="1" as="geometry">
            <mxPoint as="offset" />
          </mxGeometry>
        </mxCell>
        <mxCell id="NvtGPpROzzw8QnHz-c4A-22" value="Force Flag" style="rhombus;whiteSpace=wrap;html=1;fontFamily=Courier New;fontSize=15;" parent="1" vertex="1">
          <mxGeometry x="230" y="180" width="80" height="80" as="geometry" />
        </mxCell>
        <mxCell id="NvtGPpROzzw8QnHz-c4A-26" value="Finish" style="rounded=1;whiteSpace=wrap;html=1;fontFamily=Courier New;fontSize=15;" parent="1" vertex="1">
          <mxGeometry x="210" y="770" width="120" height="60" as="geometry" />
        </mxCell>
        <mxCell id="NvtGPpROzzw8QnHz-c4A-30" value="" style="edgeStyle=orthogonalEdgeStyle;rounded=0;orthogonalLoop=1;jettySize=auto;html=0;fontFamily=Courier New;fontSize=15;" parent="1" source="NvtGPpROzzw8QnHz-c4A-28" target="NvtGPpROzzw8QnHz-c4A-29" edge="1">
          <mxGeometry relative="1" as="geometry" />
        </mxCell>
        <mxCell id="NvtGPpROzzw8QnHz-c4A-28" value="Cron（15分钟）" style="rounded=1;whiteSpace=wrap;html=1;fontFamily=Courier New;fontSize=15;" parent="1" vertex="1">
          <mxGeometry x="570" y="430" width="250" height="60" as="geometry" />
        </mxCell>
        <mxCell id="NvtGPpROzzw8QnHz-c4A-32" style="edgeStyle=orthogonalEdgeStyle;rounded=0;orthogonalLoop=1;jettySize=auto;html=0;fontFamily=Courier New;fontSize=15;" parent="1" source="NvtGPpROzzw8QnHz-c4A-33" edge="1">
          <mxGeometry relative="1" as="geometry">
            <mxPoint x="270" y="160" as="targetPoint" />
            <Array as="points">
              <mxPoint x="695" y="160" />
            </Array>
          </mxGeometry>
        </mxCell>
        <mxCell id="NvtGPpROzzw8QnHz-c4A-29" value="Instance&lt;br&gt;(real_status=SOFT_DELETED&lt;br&gt;update_time &amp;gt; 24 小时&lt;br&gt;)" style="rounded=1;whiteSpace=wrap;html=1;fontFamily=Courier New;fontSize=15;" parent="1" vertex="1">
          <mxGeometry x="570" y="580" width="250" height="70" as="geometry" />
        </mxCell>
        <mxCell id="NvtGPpROzzw8QnHz-c4A-33" value="Force Delete" style="text;html=1;strokeColor=none;fillColor=none;align=center;verticalAlign=middle;whiteSpace=wrap;rounded=0;fontFamily=Courier New;fontSize=15;" parent="1" vertex="1">
          <mxGeometry x="630" y="250" width="150" height="20" as="geometry" />
        </mxCell>
        <mxCell id="NvtGPpROzzw8QnHz-c4A-34" style="edgeStyle=orthogonalEdgeStyle;rounded=0;orthogonalLoop=1;jettySize=auto;html=0;fontFamily=Courier New;fontSize=15;" parent="1" source="NvtGPpROzzw8QnHz-c4A-29" target="NvtGPpROzzw8QnHz-c4A-33" edge="1">
          <mxGeometry relative="1" as="geometry">
            <mxPoint x="695" y="580" as="sourcePoint" />
            <mxPoint x="270" y="160" as="targetPoint" />
            <Array as="points">
              <mxPoint x="695" y="535" />
              <mxPoint x="840" y="535" />
              <mxPoint x="840" y="370" />
              <mxPoint x="695" y="370" />
            </Array>
          </mxGeometry>
        </mxCell>
        <mxCell id="YUktSGVNl93bklLCr4KV-3" value="" style="edgeStyle=orthogonalEdgeStyle;rounded=0;orthogonalLoop=1;jettySize=auto;html=0;fontFamily=Courier New;fontSize=15;" edge="1" parent="1" source="YUktSGVNl93bklLCr4KV-1" target="YUktSGVNl93bklLCr4KV-2">
          <mxGeometry relative="1" as="geometry" />
        </mxCell>
        <mxCell id="YUktSGVNl93bklLCr4KV-1" value="回收站" style="rounded=0;whiteSpace=wrap;html=1;fontFamily=Courier New;fontSize=15;" vertex="1" parent="1">
          <mxGeometry x="880" y="70" width="190" height="60" as="geometry" />
        </mxCell>
        <mxCell id="YUktSGVNl93bklLCr4KV-2" value="and filter&amp;nbsp;&lt;br&gt;real status= soft deleted" style="rounded=0;whiteSpace=wrap;html=1;fontFamily=Courier New;fontSize=15;" vertex="1" parent="1">
          <mxGeometry x="880" y="200" width="190" height="60" as="geometry" />
        </mxCell>
      </root>
    </mxGraphModel>
  </diagram>
</mxfile>
